<?xml version="1.0" standalone="no"?>
<!DOCTYPE svg PUBLIC "-//W3C//DTD SVG 20010904//EN"
 "http://www.w3.org/TR/2001/REC-SVG-20010904/DTD/svg10.dtd">
<svg version="1.0" xmlns="http://www.w3.org/2000/svg"
 width="761.000000pt" height="761.000000pt" viewBox="0 0 761.000000 761.000000"
 preserveAspectRatio="xMidYMid meet">
<metadata>
Created by potrace 1.14, written by Peter Selinger 2001-2017
</metadata>
<g transform="translate(0.000000,761.000000) scale(0.100000,-0.100000)"
fill="#000000" stroke="none">
<path d="M0 4690 c0 -1606 2 -2920 4 -2920 2 0 23 32 47 71 52 84 109 151 153
178 17 11 70 33 119 50 48 17 126 45 175 62 48 17 249 87 447 154 198 68 419
144 490 170 299 109 690 236 830 270 83 20 158 44 168 52 21 20 80 206 103
328 26 139 43 193 66 214 18 18 20 27 14 73 -4 29 -11 80 -14 113 -8 66 -9 68
-64 141 -47 62 -98 172 -132 284 -15 47 -33 105 -40 130 -8 25 -14 60 -15 79
0 19 -5 37 -11 41 -9 6 -9 13 1 28 11 18 10 24 -6 43 -14 15 -16 23 -8 26 9 3
10 9 1 23 -10 15 -9 23 6 39 21 23 15 54 -9 45 -10 -4 -15 0 -15 10 0 9 6 16
13 16 6 0 4 5 -5 11 -22 12 -23 29 -4 29 11 0 14 11 10 51 -3 46 -24 95 -35
84 -3 -2 -6 6 -6 18 -1 12 -9 27 -17 33 -9 6 -13 14 -9 17 3 4 0 14 -8 23 -27
33 -18 243 23 517 21 137 40 253 43 257 3 5 14 82 25 172 18 155 35 227 56
248 6 6 42 -1 99 -21 91 -31 101 -33 211 -47 143 -19 320 29 482 130 26 16 36
18 42 8 8 -12 33 -2 158 65 81 43 220 201 236 268 7 28 22 46 83 99 86 74 96
77 235 74 118 -3 130 -5 160 -28 35 -26 66 -28 198 -13 45 5 68 2 120 -18 67
-26 213 -99 237 -119 41 -34 173 -266 173 -304 0 -8 13 -38 30 -67 16 -30 30
-57 30 -62 0 -4 -18 -5 -40 -2 -50 6 -43 -8 16 -34 37 -17 45 -26 54 -62 6
-23 15 -51 20 -62 11 -23 10 -65 -2 -65 -4 0 -8 -7 -8 -15 0 -8 -13 -21 -30
-30 -32 -17 -54 -20 -46 -6 9 14 -23 81 -38 81 -23 0 -27 -29 -6 -42 14 -9 16
-16 8 -25 -15 -18 -38 -16 -38 3 0 8 -5 12 -10 9 -8 -5 -8 -11 0 -20 9 -10 7
-16 -7 -23 -21 -11 -65 4 -114 39 -31 22 -59 20 -59 -4 0 -14 -115 -41 -131
-31 -5 3 -46 5 -91 5 -110 1 -225 -34 -248 -74 -13 -24 -13 -29 0 -37 15 -10
174 -7 322 6 57 5 74 3 108 -15 22 -12 52 -21 65 -21 13 0 28 -8 34 -17 8 -16
12 -16 37 -3 l28 15 -28 3 c-32 4 -30 24 3 29 48 7 110 -51 92 -86 -8 -15 -5
-21 17 -31 32 -16 73 -20 88 -8 14 10 74 -1 74 -14 0 -5 -10 -13 -22 -18 -22
-8 -22 -9 4 -9 31 -1 42 -21 20 -37 -15 -11 -8 -39 7 -29 14 8 22 -57 9 -72
-9 -11 -8 -13 3 -11 10 2 15 -8 16 -32 1 -19 6 -63 11 -97 4 -35 6 -63 2 -63
-3 0 -6 -46 -7 -103 -1 -103 -18 -217 -33 -217 -4 0 -11 -24 -14 -52 -12 -89
-38 -182 -54 -195 -9 -7 -11 -13 -5 -13 6 0 9 -34 7 -95 -1 -52 2 -97 7 -100
10 -7 0 -156 -11 -168 -4 -5 -4 -24 0 -44 6 -26 3 -47 -11 -80 -10 -25 -19
-53 -19 -64 0 -10 -4 -19 -10 -19 -5 0 -10 -11 -10 -24 0 -14 -5 -28 -10 -31
-6 -4 -17 -21 -26 -38 -29 -62 -39 -77 -46 -77 -5 0 -8 -7 -8 -16 0 -23 -63
-105 -99 -129 -28 -18 -47 -56 -19 -39 7 4 8 3 4 -4 -4 -6 -13 -9 -22 -5 -17
6 -54 -23 -54 -44 0 -8 -4 -12 -8 -9 -5 3 -23 -8 -40 -23 -27 -26 -30 -32 -20
-53 l11 -23 40 39 c29 28 41 35 47 26 6 -10 9 -8 13 6 4 18 5 18 6 1 1 -13 7
-17 24 -15 12 2 21 9 20 16 -2 6 3 11 10 9 7 -1 11 7 9 24 -3 33 20 34 35 2 6
-12 7 -23 2 -23 -5 0 -9 -5 -9 -10 0 -6 6 -10 13 -8 7 2 12 0 12 -4 0 -4 10
-15 22 -23 13 -9 23 -25 23 -35 0 -10 6 -20 13 -23 10 -3 10 -9 0 -26 -19 -31
-17 -71 5 -71 9 0 13 -4 7 -8 -5 -4 -10 -26 -10 -49 -1 -26 -8 -50 -20 -63
-10 -11 -15 -23 -12 -27 12 -11 82 74 112 134 15 32 41 93 56 135 l28 77 -29
21 c-19 14 -30 30 -30 46 0 33 20 31 72 -9 35 -27 51 -51 85 -127 23 -52 66
-144 94 -205 29 -60 63 -148 74 -194 l22 -85 64 -14 c69 -15 545 -146 699
-192 52 -16 147 -44 210 -64 63 -19 169 -49 234 -66 203 -54 373 -115 591
-213 283 -127 424 -201 543 -284 l22 -15 0 2831 0 2831 -3805 0 -3805 0 0
-2920z m3296 1291 c-3 -5 -15 -11 -26 -14 -17 -4 -19 -3 -9 9 12 15 44 20 35
5z m-1199 -870 c12 -12 25 -38 28 -58 4 -21 10 -51 15 -68 16 -56 23 -120 21
-182 -2 -73 25 -306 39 -331 11 -22 60 -148 71 -184 7 -25 5 -28 -42 -43 -89
-30 -173 6 -210 89 -25 58 -67 364 -72 542 -6 172 5 218 64 253 35 21 47 19
86 -18z m3189 -318 c27 -26 58 -47 69 -48 28 0 30 -38 6 -137 -11 -46 -22
-110 -25 -143 -6 -65 -45 -176 -73 -208 -37 -41 -142 -73 -158 -47 -3 5 0 36
8 67 8 32 18 78 22 102 12 75 32 111 60 111 15 0 25 6 25 15 0 11 -8 13 -31 8
l-30 -6 7 104 c4 57 13 117 21 133 8 16 12 39 9 53 -15 59 26 57 90 -4z m-661
-1403 c3 -5 -1 -10 -9 -10 -9 0 -16 5 -16 10 0 6 4 10 9 10 6 0 13 -4 16 -10z
m-95 -74 c0 -2 -7 -7 -16 -10 -8 -3 -12 -2 -9 4 6 10 25 14 25 6z"/>
<path d="M2000 5060 c-6 -12 -10 -42 -8 -68 l3 -47 27 52 c28 52 28 83 2 83
-7 0 -18 -9 -24 -20z"/>
<path d="M5240 4428 c0 -9 5 -20 10 -23 13 -8 13 5 0 25 -8 13 -10 13 -10 -2z"/>
<path d="M4871 5761 c-7 -5 -11 -14 -7 -19 9 -15 36 -4 36 14 0 16 -9 18 -29
5z"/>
<path d="M4891 5624 c0 -11 3 -14 6 -6 3 7 2 16 -1 19 -3 4 -6 -2 -5 -13z"/>
<path d="M2817 5569 c-26 -9 -48 -18 -50 -20 -1 -2 -12 -18 -25 -36 l-22 -32
39 -12 c28 -8 62 -9 126 -1 49 5 93 8 99 6 13 -5 150 -14 253 -17 53 -1 74 2
78 11 7 20 8 20 -27 35 -119 53 -178 67 -313 75 -88 6 -119 4 -158 -9z"/>
<path d="M2693 5562 c-42 -16 -59 -42 -28 -42 30 0 85 29 85 44 0 19 -2 19
-57 -2z"/>
<path d="M2562 5513 c-7 -2 -17 -13 -22 -24 -16 -28 12 -25 47 6 25 22 26 24
8 24 -11 0 -26 -3 -33 -6z"/>
<path d="M4080 5485 c-8 -9 -8 -15 -2 -15 12 0 26 19 19 26 -2 2 -10 -2 -17
-11z"/>
<path d="M4537 5291 c6 -25 -20 -31 -147 -31 -80 0 -126 -6 -192 -24 -99 -27
-143 -51 -187 -102 -41 -46 -41 -67 -1 -53 17 6 30 16 30 22 0 7 15 22 33 33
124 82 147 88 147 37 0 -51 56 -103 110 -103 55 0 118 56 130 115 6 27 57 -16
69 -59 5 -17 12 -38 15 -47 7 -16 -48 -49 -84 -49 -10 0 -21 -4 -24 -9 -13
-21 36 -36 149 -47 48 -4 53 -2 113 46 34 28 62 57 62 66 0 42 -127 184 -185
209 -46 19 -44 19 -38 -4z m-237 -101 c0 -5 -7 -10 -15 -10 -8 0 -15 5 -15 10
0 6 7 10 15 10 8 0 15 -4 15 -10z m60 0 c0 -5 -7 -10 -15 -10 -8 0 -15 5 -15
10 0 6 7 10 15 10 8 0 15 -4 15 -10z"/>
<path d="M2682 5209 c-66 -74 -77 -110 -37 -117 11 -2 31 -14 45 -26 57 -51
102 -66 144 -50 13 5 7 15 -29 46 -25 22 -45 48 -45 58 0 16 110 100 132 100
4 0 8 -16 8 -36 0 -73 99 -126 168 -90 39 20 62 53 62 87 0 36 8 41 42 23 33
-17 117 -79 133 -99 5 -7 18 -15 28 -18 44 -16 -7 81 -68 127 -52 40 -190 60
-340 51 -131 -9 -159 -8 -163 5 -7 19 -17 10 -80 -61z m323 2 c7 -12 -12 -24
-25 -16 -11 7 -4 25 10 25 5 0 11 -4 15 -9z m55 -11 c0 -5 -7 -10 -15 -10 -8
0 -15 5 -15 10 0 6 7 10 15 10 8 0 15 -4 15 -10z"/>
<path d="M4088 5083 c7 -3 16 -2 19 1 4 3 -2 6 -13 5 -11 0 -14 -3 -6 -6z"/>
<path d="M3805 4494 c-62 -23 -125 -95 -82 -94 39 1 185 28 205 38 27 15 28
24 5 44 -27 23 -83 28 -128 12z"/>
<path d="M3362 4488 c-18 -18 -14 -46 7 -58 26 -13 117 -13 142 1 17 8 18 13
8 25 -33 40 -130 59 -157 32z"/>
<path d="M4100 4047 c0 -23 4 -36 10 -32 13 8 13 35 0 55 -7 11 -10 5 -10 -23z"/>
<path d="M3055 4010 c-18 -20 -15 -38 4 -25 15 9 33 45 23 45 -5 0 -17 -9 -27
-20z"/>
<path d="M3967 4023 c-4 -3 -7 -14 -7 -24 0 -10 -10 -21 -21 -24 -19 -6 -20
-9 -6 -23 10 -9 35 -15 69 -16 125 -2 144 35 38 71 -36 13 -65 23 -66 23 0 0
-4 -3 -7 -7z"/>
<path d="M3630 4004 c-8 -2 -46 -6 -84 -9 -120 -12 -49 -23 94 -15 165 9 234
29 95 28 -49 -1 -97 -3 -105 -4z"/>
<path d="M3282 3964 c-58 -26 -63 -43 -17 -56 21 -5 40 -1 74 16 25 13 62 31
81 39 l35 16 -35 -1 c-19 0 -46 2 -60 5 -16 4 -45 -3 -78 -19z"/>
<path d="M4250 3926 c0 -8 5 -18 10 -21 6 -3 10 3 10 14 0 12 -4 21 -10 21 -5
0 -10 -6 -10 -14z"/>
<path d="M3633 3793 c-17 -2 -37 -10 -43 -18 -9 -10 -5 -15 20 -20 35 -8 151
3 171 16 35 23 -45 35 -148 22z"/>
<path d="M4387 3265 c-5 -13 17 -35 35 -35 19 -1 -51 -30 -71 -30 -13 0 -13 2
-2 9 11 7 10 11 -7 20 -24 13 -52 5 -52 -16 0 -8 -4 -11 -10 -8 -5 3 -10 2
-10 -3 0 -13 -26 -23 -72 -27 -21 -3 -48 -11 -62 -20 -28 -19 -89 -37 -81 -25
16 26 -82 38 -102 12 -10 -14 -14 -15 -22 -3 -5 7 -13 11 -19 7 -5 -3 -21 3
-35 14 -14 12 -28 16 -31 11 -4 -5 -22 -7 -41 -4 -27 4 -35 2 -35 -9 0 -13
-14 -15 -81 -12 -60 3 -86 0 -102 -11 -26 -18 -61 -20 -51 -3 5 8 2 9 -10 5
-10 -4 -26 -7 -37 -7 -12 0 -16 -5 -13 -15 8 -19 -15 -20 -30 0 -8 10 -16 12
-26 5 -18 -11 -4 -28 28 -33 12 -2 28 -9 34 -15 7 -7 28 -12 48 -12 20 0 40
-4 45 -9 6 -4 24 -11 42 -14 23 -5 33 -2 37 10 6 14 9 14 26 -2 16 -15 38 -18
108 -18 75 -1 186 7 202 13 3 1 13 2 22 1 9 -1 30 5 47 13 16 9 37 13 45 10
11 -4 16 -1 16 10 0 19 5 20 31 6 29 -16 92 -2 86 19 -2 10 5 21 18 27 19 9
22 8 17 -8 -2 -10 1 -18 7 -18 6 0 11 5 11 10 0 6 7 10 15 10 8 0 15 5 15 11
0 6 7 9 15 5 15 -5 55 25 55 43 0 13 49 20 55 7 3 -6 3 -1 1 11 -3 16 2 23 19
27 14 4 24 15 27 31 6 29 7 28 -26 15 -15 -5 -28 -6 -31 0 -7 12 -44 8 -48 -5z"/>
<path d="M2725 3020 c10 -11 20 -20 23 -20 3 0 -3 9 -13 20 -10 11 -20 20 -23
20 -3 0 3 -9 13 -20z"/>
<path d="M3540 2273 c-8 -3 -21 -10 -28 -16 -11 -9 -11 -12 5 -18 12 -5 6 -8
-20 -8 -23 -1 -52 -10 -70 -23 -46 -31 -203 -191 -266 -271 -12 -15 -10 -21
15 -51 16 -19 37 -46 47 -60 11 -16 27 -26 42 -26 21 0 30 -11 54 -65 16 -35
35 -82 42 -102 6 -21 19 -52 27 -69 10 -20 12 -43 8 -70 -4 -21 -11 -138 -15
-259 -9 -226 -18 -298 -72 -565 -32 -160 -39 -193 -63 -295 -8 -33 -28 -121
-45 -195 -17 -74 -33 -145 -36 -157 l-5 -23 490 0 490 0 -4 23 c-19 87 -29
150 -51 310 -14 100 -30 196 -35 212 -5 17 -11 53 -14 82 -5 48 -37 186 -85
363 -37 137 -132 404 -158 445 -7 11 -13 25 -13 32 0 6 38 39 84 72 50 36 117
99 166 155 46 52 119 127 162 166 64 57 85 70 112 70 20 0 40 8 51 19 16 19
16 21 -4 49 -28 40 -142 139 -220 192 -45 31 -74 44 -96 43 -24 -1 -32 3 -31
15 0 9 -7 18 -17 20 -15 3 -18 0 -13 -16 9 -27 -12 -32 -187 -38 -148 -6 -149
-6 -188 20 -22 15 -37 31 -34 36 7 11 -1 12 -25 3z"/>
</g>
</svg>
